<?xml version="1.0" encoding="iso-8859-1"?>
<!-- Generator: Adobe Illustrator 19.0.0, SVG Export Plug-In . SVG Version: 6.00 Build 0)  -->
<svg version="1.1" id="Capa_1" xmlns="http://www.w3.org/2000/svg" xmlns:xlink="http://www.w3.org/1999/xlink" x="0px" y="0px"
	 viewBox="0 0 479.998 479.998" style="enable-background:new 0 0 479.998 479.998;" xml:space="preserve">
<g>
	<g>
		<path d="M367.199,107.912c0.516-3.95,0.783-7.928,0.8-11.912c0-53.019-42.981-96-96-96s-96,42.981-96,96
			c0,2.704,0.16,5.368,0.376,8h-0.376c-31.582,0.053-58.411,23.119-63.2,54.336c-29.562,12.553-48.77,41.547-48.8,73.664v152
			c0.026,22.08,17.92,39.974,40,40h80c22.08-0.026,39.974-17.92,40-40V232c-0.02-6.455-0.826-12.884-2.4-19.144
			c7.506-7.585,12.979-16.94,15.912-27.2c5.983,2.26,12.176,3.919,18.488,4.952V232c0.026,22.08,17.92,39.974,40,40h8v176
			c0,2.122,0.844,4.156,2.344,5.656l24,24c3.124,3.123,8.188,3.123,11.312,0l24-24c1.5-1.5,2.344-3.534,2.344-5.656v-32
			c0-2.122-0.844-4.156-2.344-5.656L355.311,400l10.344-10.344c1.5-1.5,2.344-3.534,2.344-5.656v-8c0-2.122-0.844-4.156-2.344-5.656
			L355.311,360l10.344-10.344c1.5-1.5,2.344-3.534,2.344-5.656v-8c0-2.122-0.844-4.156-2.344-5.656L355.311,320l10.344-10.344
			c1.5-1.5,2.344-3.534,2.344-5.656v-32h8c22.08-0.026,39.974-17.92,40-40v-56C415.949,145.209,396.341,117.852,367.199,107.912z
			 M119.999,220c0.013-4.914,1.852-9.647,5.16-13.28c5.38,7.073,12.165,12.956,19.928,17.28h-25.088V220z M140.359,200.04V200
			c8.061,0.156,15.239,5.136,18.208,12.632C151.601,209.908,145.367,205.596,140.359,200.04z M207.999,384c0,13.255-10.745,24-24,24
			h-80c-13.255,0-24-10.745-24-24V232c0.023-23.089,12.481-44.376,32.6-55.704c0.711,5.6,2.166,11.081,4.328,16.296
			c-8.153,6.772-12.887,16.809-12.928,27.408v12c0,4.418,3.582,8,8,8h56c4.418,0,8-3.582,8-8v-16c-0.136,0-0.272,0-0.408,0
			c-1.877-19.447-19.164-33.691-38.611-31.813c-1.939,0.187-3.859,0.534-5.741,1.037c-1.86-4.836-2.919-9.943-3.136-15.12
			c34.056-8.921,68.895,11.455,77.816,45.511c1.401,5.348,2.1,10.856,2.08,16.385V384z M222.791,178.536
			c-1.367,6.162-3.948,11.99-7.592,17.144c-15.757-31.379-50.293-48.638-84.848-42.4c6.401-19.81,24.83-33.245,45.648-33.28
			c1.048,0,2.08,0.088,3.112,0.16c6.233,24.49,21.955,45.494,43.696,58.376H222.791z M197.375,125.096
			c13.567,6.778,23.139,19.562,25.824,34.488C211.576,150.688,202.639,138.753,197.375,125.096z M256.079,174.4
			c-5.546-1.113-10.958-2.813-16.144-5.072c0-0.44,0.064-0.872,0.064-1.312c-0.051-28.871-19.41-54.139-47.272-61.704
			c-0.462-3.418-0.705-6.863-0.728-10.312c0-44.183,35.817-80,80-80s80,35.817,80,80c-0.053,2.801-0.256,5.597-0.608,8.376
			c-2.456-0.251-4.923-0.376-7.392-0.376h-16C288.894,104.063,256.978,135.306,256.079,174.4z M359.999,160c0,4.418-3.582,8-8,8
			h-16.544c5.381-4.78,10.211-10.147,14.4-16h2.144C356.417,152,359.999,155.582,359.999,160z M351.999,300.688l-13.656,13.656
			c-3.123,3.124-3.123,8.188,0,11.312l13.656,13.656v1.376l-13.656,13.656c-3.123,3.124-3.123,8.188,0,11.312l13.656,13.656v1.376
			l-13.656,13.656c-3.123,3.124-3.123,8.188,0,11.312l13.656,13.656v25.376l-16,16l-16-16V272h32V300.688z M399.999,232
			c0,13.255-10.745,24-24,24h-80c-13.255,0-24-10.745-24-24v-56c0.035-30.913,25.087-55.965,56-56h16c1.392,0,2.76,0.112,4.12,0.208
			c-1.782,5.505-4.156,10.799-7.08,15.792h-21.04c-13.228,0.005-23.948,10.733-23.942,23.962
			c0.004,10.003,6.224,18.95,15.598,22.438l0.392,0.856c0.304-0.144,0.592-0.312,0.896-0.456c2.277,0.759,4.656,1.164,7.056,1.2h32
			c13.219,0.033,23.963-10.656,23.996-23.876c0.027-10.689-7.037-20.1-17.308-23.06c2.059-4.315,3.792-8.778,5.184-13.352
			c21.716,8.257,36.086,29.055,36.128,52.288V232z M328.799,152c-4.604,4.718-9.777,8.846-15.4,12.288
			c-0.881-1.259-1.368-2.752-1.4-4.288c0-4.418,3.582-8,8-8H328.799z"/>
	</g>
</g>
<g>
	<g>
		<path d="M167.999,256h-48c-13.255,0-24,10.745-24,24v88c0,13.255,10.745,24,24,24h48c13.255,0,24-10.745,24-24v-88
			C191.999,266.745,181.254,256,167.999,256z M175.999,368c0,4.418-3.582,8-8,8h-48c-4.418,0-8-3.582-8-8v-16h64V368z M175.999,336
			h-64v-24h64V336z M175.999,296h-64v-16c0-4.418,3.582-8,8-8h48c4.418,0,8,3.582,8,8V296z"/>
	</g>
</g>
<g>
</g>
<g>
</g>
<g>
</g>
<g>
</g>
<g>
</g>
<g>
</g>
<g>
</g>
<g>
</g>
<g>
</g>
<g>
</g>
<g>
</g>
<g>
</g>
<g>
</g>
<g>
</g>
<g>
</g>
</svg>
