<svg height="480pt" viewBox="-80 0 480 480" width="480pt" xmlns="http://www.w3.org/2000/svg"><path d="m243.007812 272h4.992188c13.253906 0 24-10.746094 24-24v-1.472656c6.777344-2.417969 12.109375-7.75 14.527344-14.527344h9.472656c13.253906 0 24-10.746094 24-24v-16c-.042969-10.132812-6.445312-19.148438-16-22.527344v-25.472656c0-79.527344-64.472656-144-144-144s-144 64.472656-144 144v25.472656c-9.554688 3.378906-15.9570312 12.394532-16 22.527344v16c0 13.253906 10.746094 24 24 24h9.472656c3.378906 9.554688 12.394532 15.957031 22.527344 16 3.648438-.023438 7.242188-.886719 10.503906-2.527344 5.535156 23.976563 20.042969 44.921875 40.542969 58.527344h-51.046875c-30.914062.035156-55.9648438 25.085938-56 56v120h320v-120c-.035156-30.914062-25.085938-55.964844-56-56h-51.046875c12.339844-8.21875 22.625-19.167969 30.054687-32zm-179.007812-160v-20.257812c8.785156 7.902343 20.183594 12.265624 32 12.257812h112c17.671875 0 32 14.328125 32 32v8h-144c-17.671875 0-32-14.328125-32-32zm186.59375 143.472656c1.148438-3.277344 2.117188-6.617187 2.902344-10 .8125.398438 1.648437.75 2.503906 1.054688v1.472656c-.023438 3.390625-2.195312 6.390625-5.40625 7.472656zm13.40625-23.472656c-4.417969 0-8-3.582031-8-8v-48c0-4.417969 3.582031-8 8-8s8 3.582031 8 8v48c0 4.417969-3.582031 8-8 8zm40-24c0 4.417969-3.582031 8-8 8h-8v-32h8c4.417969 0 8 3.582031 8 8zm-144-192c70.660156.078125 127.921875 57.339844 128 128v24h-1.472656c-3.378906-9.554688-12.394532-15.957031-22.527344-16-2.730469.027344-5.4375.523438-8 1.472656v-17.472656c-.03125-26.496094-21.503906-47.96875-48-48h-112c-16.363281-.050781-30.039062-12.460938-31.671875-28.742188 24.207031-27.480468 59.050781-43.238281 95.671875-43.257812zm-112 66.167969v29.832031c.007812 13.628906 5.828125 26.609375 16 35.679688v5.800781c-2.5625-.949219-5.269531-1.453125-8-1.480469-10.132812.042969-19.148438 6.445312-22.527344 16h-1.472656v-24c-.015625-21.636719 5.492188-42.917969 16-61.832031zm-32 125.832031v-16c0-4.417969 3.582031-8 8-8h8v32h-8c-4.417969 0-8-3.582031-8-8zm40 24c-4.417969 0-8-3.582031-8-8v-48c0-4.417969 3.582031-8 8-8s8 3.582031 8 8v48c0 4.417969-3.582031 8-8 8zm120 88v16c0 8.835938-7.164062 16-16 16s-16-7.164062-16-16v-16zm-112 144v-80h-16v80h-32v-104c.027344-22.082031 17.917969-39.972656 40-40h72v16c.054688 14.546875 9.914062 27.226562 24 30.863281v97.136719zm240-104v104h-32v-80h-16v80h-88v-97.007812c1.085938-.316407 2.15625-.695313 3.199219-1.128907.480469-.183593.984375-.304687 1.457031-.511719 1.757812-.761718 3.445312-1.679687 5.039062-2.742187.34375-.234375.640626-.519531.976563-.800781 1.214844-.867188 2.367187-1.820313 3.449219-2.847656.480468-.464844.910156-.976563 1.359375-1.472657.855469-.914062 1.65625-1.875 2.398437-2.878906.425782-.59375.800782-1.195313 1.199219-1.816406.644531-1.035157 1.226563-2.101563 1.746094-3.199219.3125-.65625.625-1.304688.886719-1.984375.472656-1.238281.863281-2.507813 1.175781-3.792969.160156-.617187.359375-1.207031.480469-1.839844.398437-1.96875.609374-3.96875.632812-5.976562v-16h72c22.082031.027344 39.972656 17.917969 40 40zm-144-56c-44.164062-.046875-79.953125-35.835938-80-80v-64h160v64c0 11.019531-2.292969 21.914062-6.726562 32h-25.273438v16h15.847656c-15.058594 20.121094-38.714844 31.976562-63.847656 32zm0 0"/><path d="m128 208h16v-8c0-13.253906-10.746094-24-24-24s-24 10.746094-24 24v8h16v-8c0-4.417969 3.582031-8 8-8s8 3.582031 8 8zm0 0"/><path d="m208 208h16v-8c0-13.253906-10.746094-24-24-24s-24 10.746094-24 24v8h16v-8c0-4.417969 3.582031-8 8-8s8 3.582031 8 8zm0 0"/><path d="m128 256c0 17.671875 14.328125 32 32 32s32-14.328125 32-32v-16h-64zm48 0c0 8.835938-7.164062 16-16 16s-16-7.164062-16-16zm0 0"/><path d="m184 384h16v16h-16zm0 0"/><path d="m184 424h16v16h-16zm0 0"/></svg>