<?xml version="1.0" encoding="iso-8859-1"?>
<!-- Generator: Adobe Illustrator 19.0.0, SVG Export Plug-In . SVG Version: 6.00 Build 0)  -->
<svg version="1.1" id="Capa_1" xmlns="http://www.w3.org/2000/svg" xmlns:xlink="http://www.w3.org/1999/xlink" x="0px" y="0px"
	 viewBox="0 0 471.264 471.264" style="enable-background:new 0 0 471.264 471.264;" xml:space="preserve">
<g>
	<g>
		<path d="M445.419,50.12l-38.4-38.4C391.4-3.903,366.074-3.906,350.45,11.713c-0.002,0.002-0.005,0.005-0.007,0.007l-66.736,66.736
			c-15.623,15.619-15.626,40.946-0.008,56.569c0.003,0.003,0.005,0.005,0.008,0.008l4.6,4.6
			c18.625,18.712,21.517,47.945,6.92,69.944c-22.387,33.506-52.632,61.026-88.096,80.16l-6.648,3.584
			c-21.529,11.724-48.215,7.811-65.472-9.6c-15.619-15.623-40.945-15.626-56.569-0.008c-0.003,0.003-0.005,0.005-0.007,0.008
			l-66.736,66.727c-15.599,15.633-15.599,40.943,0,56.576l38.408,38.408c16.412,16.518,38.731,25.815,62.016,25.832
			c9.518-0.014,18.972-1.559,28-4.576c153.964-51.714,274.819-172.554,326.552-326.512C477.334,108.56,469.091,73.633,445.419,50.12
			z M295.011,89.76l66.736-66.736c7.728-7.673,19.654-9.18,29.048-3.672l-99.456,99.456
			C285.831,109.414,287.338,97.488,295.011,89.76z M23.011,361.76v0.04l66.736-66.736c7.693-7.745,19.67-9.259,29.048-3.672
			l-99.456,99.416C13.831,381.414,15.338,369.488,23.011,361.76z M451.499,135.112c-50.113,149.192-167.212,266.3-316.4,316.424
			c-25.868,8.708-54.437,1.965-73.68-17.392l-31.384-31.408l101.2-101.2c22.218,16.923,52.303,19.219,76.832,5.864l6.648-3.576
			c37.771-20.379,69.98-49.693,93.816-85.384c18.076-27.277,15.359-63.339-6.6-87.6L402.723,30.048l31.384,31.384
			C453.474,80.67,460.219,109.245,451.499,135.112z"/>
	</g>
</g>
<g>
	<g>
		<path d="M50.723,186.736h16c0.075-66.243,53.757-119.925,120-120v-16C111.647,50.82,50.806,111.66,50.723,186.736z"/>
	</g>
</g>
<g>
	<g>
		<path d="M89.123,186.736h16c0.048-45.046,36.554-81.552,81.6-81.6v-16C132.845,89.198,89.184,132.859,89.123,186.736z"/>
	</g>
</g>
<g>
	<g>
		<path d="M127.523,186.736h16c0.026-23.848,19.352-43.174,43.2-43.2v-16C154.044,127.576,127.562,154.057,127.523,186.736z"/>
	</g>
</g>
<g>
</g>
<g>
</g>
<g>
</g>
<g>
</g>
<g>
</g>
<g>
</g>
<g>
</g>
<g>
</g>
<g>
</g>
<g>
</g>
<g>
</g>
<g>
</g>
<g>
</g>
<g>
</g>
<g>
</g>
</svg>
